<svg width="11" height="11" viewBox="0 0 11 11" fill="none" xmlns="http://www.w3.org/2000/svg">
<path d="M5.146 0.146894C5.19245 0.10033 5.24762 0.0633873 5.30837 0.0381808C5.36911 0.0129744 5.43423 0 5.5 0C5.56577 0 5.63089 0.0129744 5.69163 0.0381808C5.75238 0.0633873 5.80755 0.10033 5.854 0.146894L10.854 5.14689C10.9006 5.19334 10.9375 5.24852 10.9627 5.30926C10.9879 5.37001 11.0009 5.43513 11.0009 5.50089C11.0009 5.56666 10.9879 5.63178 10.9627 5.69253C10.9375 5.75327 10.9006 5.80845 10.854 5.85489L5.854 10.8549C5.76011 10.9488 5.63278 11.0015 5.5 11.0015C5.36722 11.0015 5.23989 10.9488 5.146 10.8549C5.05211 10.761 4.99937 10.6337 4.99937 10.5009C4.99937 10.3681 5.05211 10.2408 5.146 10.1469L9.293 6.00089H0.5C0.367392 6.00089 0.240215 5.94822 0.146447 5.85445C0.0526785 5.76068 0 5.6335 0 5.50089C0 5.36829 0.0526785 5.24111 0.146447 5.14734C0.240215 5.05357 0.367392 5.00089 0.5 5.00089H9.293L5.146 0.854894C5.09944 0.808448 5.06249 0.753272 5.03729 0.692527C5.01208 0.631782 4.99911 0.566661 4.99911 0.500894C4.99911 0.435126 5.01208 0.370005 5.03729 0.30926C5.06249 0.248515 5.09944 0.193339 5.146 0.146894Z" fill="white"/>
</svg>
